<?xml version="1.0" encoding="UTF-8" standalone="no"?>
<!DOCTYPE svg PUBLIC "-//W3C//DTD SVG 1.1//EN" "http://www.w3.org/Graphics/SVG/1.1/DTD/svg11.dtd">
<svg width="352px" height="400px" version="1.1" xmlns="http://www.w3.org/2000/svg" xmlns:xlink="http://www.w3.org/1999/xlink" xml:space="preserve" xmlns:serif="http://www.serif.com/" style="fill-rule:evenodd;clip-rule:evenodd;stroke-linejoin:round;stroke-miterlimit:2;">
    <path d="M59.715,126.994c15.318,-47.685 47.323,-76.572 96.413,-83.701c61.553,-8.939 117.563,32.758 129.199,92.649c4.742,24.409 1.064,48.015 -6.59,71.269c-6.175,18.76 -14.912,36.329 -24.575,53.493c-1.883,3.344 -4.151,4.176 -7.763,3.379c-21.191,-4.678 -42.651,-7.249 -64.348,-7.772c-3.116,-0.075 -5.491,-0.412 -5.47,-4.544c0.112,-22.331 0.054,-44.663 0.073,-66.995c0.001,-0.968 -0.091,-2.023 1.119,-2.932c3.752,0.293 6.41,2.698 8.706,5.609c1.131,1.434 1.963,3.105 3.102,4.533c1.703,2.136 3.818,3.397 6.481,1.638c2.399,-1.584 2.996,-3.739 1.876,-6.513c-1.777,-4.403 -5.416,-7.46 -8.404,-11.606c4.422,-1.218 7.715,0.786 11.072,2.208c1.678,0.711 3.156,1.909 4.849,2.567c2.406,0.934 4.643,0.466 6.174,-1.79c1.653,-2.436 0.649,-4.585 -1.262,-6.183c-4.579,-3.828 -10.016,-5.869 -15.831,-6.958c-1.769,-0.331 -3.663,-0.217 -5.404,-1.749c2.871,-3.04 6.604,-3.645 10.31,-3.855c3.475,-0.197 6.988,0.077 10.472,0.32c3.27,0.228 5.841,-0.787 6.267,-4.202c0.407,-3.254 -2.087,-4.71 -4.862,-5.351c-8.029,-1.854 -15.884,-1.142 -23.514,1.946c-2.285,0.925 -4.522,1.97 -7.247,3.164c-0.312,-2.875 1.247,-4.418 2.55,-5.975c4.846,-5.794 11.406,-8.491 18.577,-9.921c3.257,-0.65 6.143,-1.965 5.64,-5.656c-0.545,-3.999 -3.724,-4.517 -7.286,-3.934c-6.518,1.067 -12.521,3.346 -17.986,7.058c-1.343,0.912 -2.433,2.326 -4.747,2.302c-1.29,-2.49 -0.447,-5.346 -0.729,-8.033c-0.341,-3.252 -1.376,-6.131 -5.245,-6.007c-3.517,0.113 -4.573,2.843 -4.889,5.892c-0.272,2.621 0.432,5.327 -0.625,7.904c-2.214,0.624 -3.418,-1.1 -4.851,-2.061c-5.201,-3.489 -10.874,-5.718 -17.004,-6.913c-3.756,-0.732 -7.512,-0.807 -8.26,3.818c-0.669,4.138 2.902,4.979 6.126,5.701c6.967,1.559 13.313,4.298 18.047,9.933c1.259,1.498 2.687,2.921 2.804,5.888c-5.727,-2.261 -10.871,-4.858 -16.65,-5.655c-4.726,-0.652 -9.301,-0.386 -13.906,0.42c-3.312,0.58 -5.846,2.252 -5.082,6.025c0.692,3.42 3.358,4.038 6.586,3.658c6.948,-0.819 13.867,-1.098 20.49,3.282c-3.52,2.356 -7.381,1.853 -10.69,3.194c-3.559,1.442 -7.203,2.714 -10.172,5.226c-2.156,1.824 -3.782,4.041 -1.696,6.897c1.935,2.647 4.522,2.596 7.088,1.038c3.596,-2.183 7.36,-3.892 11.501,-4.691c0.953,-0.184 1.98,-0.426 2.952,0.817c-2.017,3.457 -5.375,6.069 -7.277,9.764c-1.552,3.015 -2.185,5.757 1.008,7.893c3.472,2.322 5.553,-0.057 7.349,-2.67c2.824,-4.109 5.683,-8.137 10.879,-9.146c1.801,1.693 1.298,3.463 1.301,5.043c0.044,21.165 -0.066,42.332 0.115,63.496c0.038,4.448 -1.25,6.107 -5.896,6.217c-21.355,0.504 -42.49,3.149 -63.374,7.621c-3.93,0.841 -6.295,0.215 -8.46,-3.61c-14.523,-25.66 -26.663,-52.194 -31.499,-81.578c-2.851,-17.324 -2.273,-34.483 2.47,-51.857m62.356,58.278c-4.716,-8.66 -7.278,-17.969 -7.047,-27.781c0.832,-35.401 31.932,-60.774 66.858,-54.773c26.391,4.535 47.194,29.487 46.058,56.162c-1.07,25.114 -13.759,42.495 -36.971,52.119c-3.315,1.375 -6.552,2.982 -5.028,7.123c1.535,4.172 5.161,3.342 8.492,2.161c0.628,-0.223 1.246,-0.473 1.862,-0.727c28.182,-11.622 45.246,-39.719 40.89,-70.162c-4.685,-32.744 -29.833,-55.481 -61.747,-57.184c-25.184,-1.344 -45.341,8.585 -59.166,29.547c-13.937,21.132 -14.932,43.754 -3.704,66.452c7.797,15.761 20.401,26.536 37.068,32.349c4.133,1.442 7.542,-0.138 7.761,-3.474c0.247,-3.761 -2.575,-5.01 -5.513,-6.108c-12.833,-4.798 -22.578,-13.245 -29.813,-25.706Z" style="fill:rgb(0,168,232);fill-rule:nonzero;"/>
    <path d="M154.822,279.923c-7.911,-1.592 -14.909,-0.632 -21.308,3.942c-5.288,3.779 -10.926,3.774 -16.38,0.394c-4.453,-2.76 -8.963,-5.054 -14.348,-5.219c-2.488,-0.076 -3.829,-1.642 -4.319,-3.978c18.081,-11.319 122.161,-11.631 146.071,-0.454c-0.076,3.097 -2.066,4.264 -4.796,4.412c-5.007,0.273 -9.265,2.338 -13.409,4.962c-5.767,3.652 -11.522,3.555 -17.282,-0.321c-9.25,-6.223 -18.781,-6.347 -28.102,-0.328c-6.51,4.203 -12.622,4.356 -19.028,-0.034c-2.026,-1.388 -4.46,-2.181 -7.098,-3.378Z" style="fill:rgb(0,168,232);fill-rule:nonzero;"/>
    <path d="M135.92,294.001c8.175,-6.383 15.635,-6.151 24.071,-0.479c7.612,5.118 16.375,4.689 24.06,-0.492c7.262,-4.896 13.765,-5.289 21.126,-0.148c7.035,4.913 14.936,5.079 22.87,1.718c1.154,-0.489 2.19,-1.575 4.708,-0.652c-4.66,6.096 -8.761,12.27 -13.743,17.624c-2.349,2.524 -5.979,0.585 -8.719,-1.18c-4.232,-2.726 -8.509,-5.103 -13.799,-5.232c-5.678,-0.138 -10.922,0.894 -15.615,4.198c-6.343,4.465 -12.502,4.264 -18.988,-0.047c-8.744,-5.811 -17.833,-5.612 -26.849,-0.375c-2.15,1.249 -4.083,2.913 -6.635,3.353c-1.825,0.314 -3.726,0.696 -5.064,-1.062c-4.394,-5.773 -8.74,-11.584 -12.774,-17.99c8.424,3.692 16.63,5.231 25.352,0.766Z" style="fill:rgb(0,168,232);fill-rule:nonzero;"/>
    <path d="M148.943,331.244c-8.339,2.045 -12.91,-1.861 -15.915,-8.608c11.689,-9.504 16.498,-9.606 26.215,-3.314c7.901,5.116 16.656,5.089 24.58,-0.034c9.832,-6.356 14.28,-6.005 25.813,3.126c-2.857,7.383 -5.391,9.251 -12.575,8.815c-5.853,-0.355 -11.256,0.733 -16.108,4.138c-6.527,4.58 -12.938,4.447 -19.403,-0.255c-3.582,-2.604 -7.684,-3.931 -12.608,-3.867Z" style="fill:rgb(0,168,232);fill-rule:nonzero;"/>
    <path d="M152.074,345.968c-1.079,-1.406 -2.587,-2.16 -2.455,-4.609c7.795,0.977 13.272,7.644 21.536,7.646c8.351,0.001 14.121,-5.97 22.022,-7.017c-6.445,8.799 -13.6,16.726 -21.637,24.374c-7.168,-6.48 -12.961,-13.543 -19.466,-20.394Z" style="fill:rgb(0,168,232);fill-rule:nonzero;"/>
</svg>
